<svg xmlns="http://www.w3.org/2000/svg" viewBox="0 0 72 72" width="72" height="72" fill="none" stroke-linecap="round" stroke-linejoin="round">
<path d="M7 64L65 64" stroke="#71717a" stroke-width="2.6"/>
<path d="M14 48L32 48" stroke="#71717a" stroke-width="7"/>
<path d="M14 48L32 48" stroke="#d4d4d8" stroke-width="3.6"/>
<path d="M13 46L10 30" stroke="#71717a" stroke-width="7"/>
<path d="M13 46L10 30" stroke="#d4d4d8" stroke-width="3.6"/>
<path d="M10 50L56 50" stroke="#71717a" stroke-width="2.6"/>
<rect x="50" y="24" width="5.5" height="26" rx="2" fill="#16a34a"/>
<path d="M20 44L34 43L48 42" stroke="#52525b" stroke-width="4.6"/>
<path d="M17.6 30.2L17 46L15 51" stroke="#52525b" stroke-width="4.6"/>
<path d="M20 44L17.6 30.2" stroke="#27272a" stroke-width="6.6"/>
<circle cx="16.4" cy="23.8" r="4.3" fill="#27272a"/>
<path d="M20 44L34 39L48 37" stroke="#27272a" stroke-width="4.6"/>
<path d="M17.6 30.2L16 44L14 49" stroke="#27272a" stroke-width="4.6"/>
</svg>
